<mxfile host="Electron" agent="Mozilla/5.0 (Macintosh; Intel Mac OS X 10_15_7) AppleWebKit/537.36 (KHTML, like Gecko) draw.io/28.1.2 Chrome/138.0.7204.243 Electron/37.4.0 Safari/537.36" version="28.1.2">
  <diagram name="PÃ¡gina-1" id="lrt2jcBQ1nJVobjcenmK">
    <mxGraphModel dx="1186" dy="733" grid="1" gridSize="10" guides="1" tooltips="1" connect="1" arrows="1" fold="1" page="1" pageScale="1" pageWidth="827" pageHeight="1169" math="0" shadow="0">
      <root>
        <mxCell id="0" />
        <mxCell id="1" parent="0" />
        <mxCell id="3Gk4v7WVOyVvCHCQD3fx-1" value="" style="rounded=0;whiteSpace=wrap;html=1;" vertex="1" parent="1">
          <mxGeometry x="420" y="210" width="380" height="310" as="geometry" />
        </mxCell>
        <mxCell id="3Gk4v7WVOyVvCHCQD3fx-2" value="grafana" style="rounded=1;whiteSpace=wrap;html=1;" vertex="1" parent="1">
          <mxGeometry x="640" y="250" width="120" height="60" as="geometry" />
        </mxCell>
        <mxCell id="3Gk4v7WVOyVvCHCQD3fx-3" value="nginx" style="rounded=1;whiteSpace=wrap;html=1;" vertex="1" parent="1">
          <mxGeometry x="450" y="330" width="120" height="60" as="geometry" />
        </mxCell>
        <mxCell id="3Gk4v7WVOyVvCHCQD3fx-7" value="" style="group" vertex="1" connectable="0" parent="1">
          <mxGeometry x="20" y="100" width="260" height="200" as="geometry" />
        </mxCell>
        <mxCell id="3Gk4v7WVOyVvCHCQD3fx-4" value="raspberry" style="rounded=0;whiteSpace=wrap;html=1;verticalAlign=bottom;" vertex="1" parent="3Gk4v7WVOyVvCHCQD3fx-7">
          <mxGeometry width="260" height="200" as="geometry" />
        </mxCell>
        <mxCell id="3Gk4v7WVOyVvCHCQD3fx-5" value="prometheus" style="rounded=1;whiteSpace=wrap;html=1;" vertex="1" parent="3Gk4v7WVOyVvCHCQD3fx-7">
          <mxGeometry x="70" y="20" width="120" height="60" as="geometry" />
        </mxCell>
        <mxCell id="3Gk4v7WVOyVvCHCQD3fx-6" value="loki" style="rounded=1;whiteSpace=wrap;html=1;" vertex="1" parent="3Gk4v7WVOyVvCHCQD3fx-7">
          <mxGeometry x="70" y="110" width="120" height="60" as="geometry" />
        </mxCell>
        <mxCell id="3Gk4v7WVOyVvCHCQD3fx-10" value="" style="group" vertex="1" connectable="0" parent="1">
          <mxGeometry x="20" y="400" width="260" height="200" as="geometry" />
        </mxCell>
        <mxCell id="3Gk4v7WVOyVvCHCQD3fx-11" value="raspberry" style="rounded=0;whiteSpace=wrap;html=1;verticalAlign=bottom;" vertex="1" parent="3Gk4v7WVOyVvCHCQD3fx-10">
          <mxGeometry width="260" height="200" as="geometry" />
        </mxCell>
        <mxCell id="3Gk4v7WVOyVvCHCQD3fx-12" value="prometheus" style="rounded=1;whiteSpace=wrap;html=1;" vertex="1" parent="3Gk4v7WVOyVvCHCQD3fx-10">
          <mxGeometry x="70" y="20" width="120" height="60" as="geometry" />
        </mxCell>
        <mxCell id="3Gk4v7WVOyVvCHCQD3fx-13" value="loki" style="rounded=1;whiteSpace=wrap;html=1;" vertex="1" parent="3Gk4v7WVOyVvCHCQD3fx-10">
          <mxGeometry x="70" y="110" width="120" height="60" as="geometry" />
        </mxCell>
        <mxCell id="3Gk4v7WVOyVvCHCQD3fx-14" style="edgeStyle=orthogonalEdgeStyle;rounded=0;orthogonalLoop=1;jettySize=auto;html=1;entryX=0;entryY=0.25;entryDx=0;entryDy=0;" edge="1" parent="1" source="3Gk4v7WVOyVvCHCQD3fx-5" target="3Gk4v7WVOyVvCHCQD3fx-3">
          <mxGeometry relative="1" as="geometry" />
        </mxCell>
        <mxCell id="3Gk4v7WVOyVvCHCQD3fx-16" style="edgeStyle=orthogonalEdgeStyle;rounded=0;orthogonalLoop=1;jettySize=auto;html=1;entryX=0;entryY=0.5;entryDx=0;entryDy=0;" edge="1" parent="1" source="3Gk4v7WVOyVvCHCQD3fx-6" target="3Gk4v7WVOyVvCHCQD3fx-3">
          <mxGeometry relative="1" as="geometry">
            <Array as="points">
              <mxPoint x="300" y="240" />
              <mxPoint x="300" y="360" />
            </Array>
          </mxGeometry>
        </mxCell>
      </root>
    </mxGraphModel>
  </diagram>
</mxfile>
